<?xml version="1.0" encoding="utf-8"?>
<!-- Generator: Adobe Illustrator 26.1.0, SVG Export Plug-In . SVG Version: 6.00 Build 0)  -->
<svg version="1.1" id="Capa_1" xmlns="http://www.w3.org/2000/svg" xmlns:xlink="http://www.w3.org/1999/xlink" x="0px" y="0px"
	 viewBox="0 0 257 281" style="enable-background:new 0 0 257 281;" xml:space="preserve">
<style type="text/css">
	.st0{fill:#FF7453
;}
</style>
<path class="st0" d="M168.5,258c-18,30.6-62.2,30.6-80.1,0l-0.7-1.1c-8.3-14.1-23.4-22.8-39.7-22.9l-1.3,0
	c-35.5-0.2-57.6-38.6-40.1-69.4l0.6-1.1c8.1-14.2,8.1-31.7,0-45.9l-0.6-1.1C-11,85.6,11.1,47.3,46.6,47l1.3,0
	c16.4-0.1,31.5-8.8,39.7-22.9l0.7-1.1c18-30.6,62.2-30.6,80.1,0l0.7,1.1c8.3,14.1,23.4,22.8,39.7,22.9l1.3,0
	c35.5,0.2,57.6,38.6,40.1,69.4l-0.6,1.1c-8.1,14.2-8.1,31.7,0,45.9l0.6,1.1c17.5,30.8-4.6,69.2-40.1,69.4l-1.3,0
	c-16.4,0.1-31.5,8.8-39.7,22.9L168.5,258z"/>
</svg>
