<?xml version="1.0" encoding="utf-8"?>
<!-- Generator: Adobe Illustrator 26.1.0, SVG Export Plug-In . SVG Version: 6.00 Build 0)  -->
<svg version="1.1" id="Capa_1" xmlns="http://www.w3.org/2000/svg" xmlns:xlink="http://www.w3.org/1999/xlink" x="0px" y="0px"
	 viewBox="0 0 273 274" style="enable-background:new 0 0 273 274;" xml:space="preserve">
<style type="text/css">
	.st0{fill:#FF80A9
;}
</style>
<path class="st0" d="M127.3,3.2c5.2-4.2,12.5-4.2,17.7,0l11.1,9.1c3.5,2.9,8.1,3.9,12.5,2.7l13.8-3.7c6.4-1.7,13.1,1.3,16.1,7.2
	l6.5,12.9c2,4,5.9,6.8,10.3,7.5l14.2,2.3c6.5,1,11.5,6.5,11.8,13.2l0.7,14.6c0.2,4.5,2.6,8.6,6.3,11.1l12.1,7.9
	c5.5,3.6,7.8,10.6,5.4,16.8l-5.2,13.7c-1.6,4.2-1.1,8.9,1.3,12.7l7.9,12.3c3.6,5.6,2.8,12.9-1.8,17.5l-10.3,10.3
	c-3.2,3.2-4.6,7.7-3.9,12.1l2.3,14.5c1,6.5-2.6,12.9-8.8,15.3l-13.5,5.2c-4.2,1.6-7.3,5.2-8.5,9.5l-3.7,14.1
	c-1.7,6.4-7.7,10.8-14.3,10.4l-14.3-0.8c-4.5-0.2-8.8,1.7-11.7,5.2l-9,11.3c-4.2,5.2-11.4,6.7-17.3,3.7l-12.7-6.6
	c-4-2.1-8.8-2.1-12.8,0l-12.7,6.6c-5.9,3-13.1,1.5-17.3-3.7l-9-11.3c-2.8-3.5-7.2-5.5-11.7-5.2l-14.3,0.8c-6.6,0.4-12.6-4-14.3-10.4
	l-3.7-14.1c-1.2-4.4-4.3-7.9-8.5-9.5l-13.5-5.2c-6.2-2.4-9.8-8.8-8.8-15.3l2.3-14.5c0.7-4.4-0.8-8.9-3.9-12.1L4.1,160.9
	c-4.7-4.7-5.4-12-1.8-17.5l7.9-12.3c2.4-3.8,2.9-8.5,1.3-12.7l-5.2-13.7c-2.4-6.2-0.1-13.2,5.4-16.8l12.1-7.9
	c3.8-2.5,6.1-6.6,6.3-11.1l0.7-14.6c0.3-6.6,5.3-12.1,11.8-13.2l14.2-2.3c4.4-0.7,8.3-3.5,10.3-7.5l6.5-12.9c3-5.9,9.7-9,16.1-7.2
	l13.8,3.7c4.4,1.2,9,0.2,12.5-2.7L127.3,3.2z"/>
</svg>
