<?xml version="1.0" encoding="utf-8"?>
<!-- Generator: Adobe Illustrator 26.1.0, SVG Export Plug-In . SVG Version: 6.00 Build 0)  -->
<svg version="1.1" id="Capa_1" xmlns="http://www.w3.org/2000/svg" xmlns:xlink="http://www.w3.org/1999/xlink" x="0px" y="0px"
	 viewBox="0 0 281 281" style="enable-background:new 0 0 281 281;" xml:space="preserve">
<style type="text/css">
	.st0{fill-rule:evenodd;clip-rule:evenodd;fill:#FFC466
;}
</style>
<path class="st0" d="M140.5,140.5c0,0-17.6-47-17.6-80.3C122.9,27,130.8,0,140.5,0c9.7,0,17.6,27,17.6,60.2
	C158,93.4,140.5,140.5,140.5,140.5z M140.5,140.5c0,0-20.8,45.7-44.3,69.2c-23.5,23.5-48.1,37-55,30.2c-6.9-6.9,6.6-31.5,30.2-55
	C94.8,161.3,140.5,140.5,140.5,140.5z M140.5,140.5c0,0-47-17.6-80.3-17.6C27,122.9,0,130.8,0,140.5c0,9.7,27,17.6,60.2,17.6
	C93.4,158,140.5,140.5,140.5,140.5z M140.5,140.5c0,0,45.7,20.8,69.2,44.3c23.5,23.5,37,48.1,30.2,55c-6.9,6.9-31.5-6.6-55-30.2
	C161.3,186.1,140.5,140.5,140.5,140.5z M140.5,140.5c0,0.1-17.6,47.1-17.6,80.3c0,33.2,7.9,60.2,17.6,60.2c9.7,0,17.6-27,17.6-60.2
	S140.5,140.5,140.5,140.5z M140.5,140.5c0,0,47-17.6,80.3-17.6c33.2,0,60.2,7.9,60.2,17.6c0,9.7-27,17.6-60.2,17.6
	C187.5,158,140.5,140.5,140.5,140.5z M140.5,140.5c0,0-45.7-20.8-69.2-44.3c-23.5-23.5-37-48.1-30.2-55c6.9-6.9,31.5,6.6,55,30.2
	C119.6,94.8,140.5,140.5,140.5,140.5z M184.8,71.3c-23.5,23.5-44.3,69.2-44.3,69.2s45.7-20.8,69.2-44.3c23.5-23.5,37-48.1,30.2-55
	C232.9,34.3,208.3,47.8,184.8,71.3z"/>
</svg>
