<?xml version="1.0" encoding="utf-8"?>
<!-- Generator: Adobe Illustrator 26.1.0, SVG Export Plug-In . SVG Version: 6.00 Build 0)  -->
<svg version="1.1" id="Capa_1" xmlns="http://www.w3.org/2000/svg" xmlns:xlink="http://www.w3.org/1999/xlink" x="0px" y="0px"
	 viewBox="0 0 35 35" style="enable-background:new 0 0 35 35;" xml:space="preserve">
<style type="text/css">
	.st0{display:none;}
	.st1{display:inline;}
	.st2{display:inline;fill-rule:evenodd;clip-rule:evenodd;}
	.st3{fill:#929292;}
</style>
<g id="Capa_1_00000145770325366149792490000008839057658524961958_" class="st0">
	<path class="st1" d="M34.4,11.6c-0.1-0.5-0.7-1-1.3-1c-0.1,0-0.7,0.1-1.2,0.3c-0.5,0.1-1,0.3-1,0.2c0,0-0.4-1-0.9-2.1
		c-0.5-1.2-0.9-2.3-1-2.5c-0.4-0.8-1.5-1.7-2.5-1.9c-0.6,0-17.5,0-18.1,0.1C7.5,5,6.6,5.6,6.2,6.3C6,6.5,5.5,7.6,5,8.8
		S4.1,11,4.1,11.1s-0.2,0.1-1-0.2c-0.5-0.1-1.1-0.3-1.2-0.3c-0.6,0-1.1,0.5-1.3,1c-0.1,0.3-0.1,1.6,0,2c0.2,0.6,0.8,1.2,1.4,1.3
		C2.5,15,2.5,15,2.4,15.1c0,0.1-0.2,0.5-0.3,0.9c-0.3,0.9-0.6,2.1-0.7,3c0,0.3-0.1,2.6-0.1,5.2c0,4.4,0,4.6,0.1,4.9
		c0.2,0.5,0.6,0.9,1,1c0.3,0.1,0.5,0.1,1.8,0.1c1.7,0,2-0.1,2.5-0.6c0.4-0.5,0.5-0.8,0.5-2.2v-1.2h20.3v1.3c0,0.8,0.1,1.4,0.1,1.5
		c0.2,0.4,0.5,0.7,0.8,0.9l0.4,0.2h1.5c1.3,0,1.6,0,1.9-0.1c0.4-0.1,0.9-0.5,1.1-1l0.2-0.4v-4.9c0-4.4,0-5-0.1-5.6
		c-0.2-0.9-0.4-2-0.7-2.8c-0.3-0.7-0.2-0.7,0.2-0.7c0.6,0,1.4-0.7,1.5-1.3C34.5,13.2,34.5,12,34.4,11.6z"/>
</g>
<g id="Capa_2_00000101092535380659487910000000021483791901432993_" class="st0">
	<path class="st2" d="M5.3,17.7v6.9c0,3.6,0,5.3,0.1,5.5C5.5,30.5,6,30.9,6.3,31c0.3,0,1.6,0,4.4,0h4.1h5.4h4.1c2.7,0,4.2,0,4.3-0.1
		c0.4-0.1,0.8-0.4,0.9-0.8c0.1-0.3,0.1-0.6,0.1-5.5v-7c1.6,1.3,2.6,2.2,2.7,2.2c0.1,0,0.2,0,0.4,0s0.4-0.2,1-1
		c0.4-0.5,0.8-1,0.8-1.1c0.1-0.4,0-0.5-2.4-2.5l-2.4-2V8.7V4.2L29.5,4l-0.2,0h-2.1c-1.4,0-2.2,0-2.4,0c-0.5,0.1-0.5,0.1-0.5,2.6l0,0
		v2.2l-2.7-2.3c-2.9-2.4-3-2.5-3.8-2.6c-0.2,0-0.5,0-0.7,0S16.6,4,16.4,4.1s-3.5,2.8-8,6.6c-7.3,6.1-7.9,6.5-7.8,6.9v0.1
		c0,0.1,0.4,0.6,0.8,1.1c0.6,0.8,0.8,0.9,1,1c0.1,0,0.3,0,0.4,0C2.7,19.8,3.8,19,5.3,17.7z"/>
</g>
<g id="Capa_3">
	<path class="st3" d="M3.9,33.6c-0.9,0-1.7-0.3-2.4-1s-1-1.5-1-2.4V11.6c0-0.9,0.3-1.7,1-2.4s1.5-1,2.4-1h6.8V4.8
		c0-0.9,0.3-1.7,1-2.4s1.5-1,2.4-1h6.8c0.9,0,1.7,0.3,2.4,1c0.7,0.7,1,1.5,1,2.4v3.4h6.8c0.9,0,1.7,0.3,2.4,1s1,1.5,1,2.4v18.6
		c0,0.9-0.3,1.7-1,2.4s-1.5,1-2.4,1C31.1,33.6,3.9,33.6,3.9,33.6z M14.1,8.2h6.8V4.8h-6.8C14.1,4.8,14.1,8.2,14.1,8.2z"/>
</g>
</svg>
