<?xml version="1.0" encoding="utf-8"?>
<!-- Generator: Adobe Illustrator 26.1.0, SVG Export Plug-In . SVG Version: 6.00 Build 0)  -->
<svg version="1.1" id="Capa_1" xmlns="http://www.w3.org/2000/svg" xmlns:xlink="http://www.w3.org/1999/xlink" x="0px" y="0px"
	 viewBox="0 0 35 35" style="enable-background:new 0 0 35 35;" xml:space="preserve">
<style type="text/css">
	.st0{fill-rule:evenodd;clip-rule:evenodd;}
</style>
<path class="st0" d="M5.3,17.7v6.9c0,3.6,0,5.3,0.1,5.5c0.1,0.4,0.6,0.8,0.9,0.9C6.6,31,7.9,31,10.7,31h4.1h5.4h4.1
	c2.7,0,4.2,0,4.3-0.1c0.4-0.1,0.8-0.4,0.9-0.8c0.1-0.3,0.1-0.6,0.1-5.5v-7c1.6,1.3,2.6,2.2,2.7,2.2c0.1,0,0.2,0,0.4,0
	c0.2,0,0.4-0.2,1-1c0.4-0.5,0.8-1,0.8-1.1c0.1-0.4,0-0.5-2.4-2.5l-2.4-2l0-4.5l0-4.5l-0.2-0.2L29.3,4l-2.1,0c-1.4,0-2.2,0-2.4,0
	c-0.5,0.1-0.5,0.1-0.5,2.6v0l0,2.2l-2.7-2.3c-2.9-2.4-3-2.5-3.8-2.6c-0.2,0-0.5,0-0.7,0c-0.2,0-0.5,0.1-0.7,0.2
	c-0.2,0.1-3.5,2.8-8,6.6c-7.3,6.1-7.9,6.5-7.8,6.9c0,0,0,0.1,0,0.1c0,0.1,0.4,0.6,0.8,1.1c0.6,0.8,0.8,0.9,1,1c0.1,0,0.3,0,0.4,0
	C2.7,19.8,3.8,19,5.3,17.7z"/>
</svg>
