<svg width="24" height="24" viewBox="0 0 24 24" fill="none" xmlns="http://www.w3.org/2000/svg">
<path d="M18.1656 12.9459L18.1707 12.9592L18.1762 12.9724C19.0985 15.1793 18.4785 17.7402 16.7436 19.352C15.1871 20.7751 12.9559 21.1982 10.7698 20.9196C10.0991 20.8326 8.71005 20.4218 7.4642 19.4221C6.25594 18.4526 5.17211 16.9253 5.00005 14.5229C5.00285 13.494 5.13214 12.6351 5.32452 11.9248C5.56702 13.0568 6.15881 14.2463 7.41194 15.196C8.0235 15.6641 8.75833 15.5352 9.21304 15.1757C9.66299 14.8199 9.95202 14.1547 9.68184 13.4624C8.69981 10.9423 8.81407 8.79154 9.5225 7.05345C10.0935 5.65248 11.0712 4.47093 12.2632 3.56688C12.16 4.64829 12.291 5.58255 12.6151 6.41215C13.0456 7.51425 13.7791 8.33089 14.5216 9.01156C14.8588 9.32066 15.2144 9.616 15.5506 9.89529C15.5827 9.92195 15.6146 9.94847 15.6463 9.97484C16.018 10.2839 16.3673 10.5777 16.6937 10.8875C17.3412 11.5022 17.8561 12.1417 18.1656 12.9459Z" stroke="black" stroke-width="2"/>
</svg>
