<svg width="30" height="30" viewBox="0 0 30 30" fill="none" xmlns="http://www.w3.org/2000/svg">
<path d="M24.853 6.10161L23.9331 5.18168C23.6731 4.92169 23.1931 4.9617 22.8931 5.32163L19.6929 8.50159C18.2528 7.88166 16.6729 7.58166 15.0129 7.58166C10.0727 7.60159 5.79299 10.4815 3.73285 14.6218C3.61281 14.8818 3.61281 15.2017 3.73285 15.4217C4.69276 17.3817 6.13285 19.0018 7.93286 20.2217L5.31287 22.8817C5.01286 23.1817 4.97285 23.6616 5.17291 23.9216L6.09284 24.8416C6.35283 25.1016 6.83281 25.0615 7.13281 24.7016L24.6927 7.14175C25.0727 6.84192 25.1127 6.36197 24.8527 6.10195L24.853 6.10161ZM16.0729 12.1415C15.7328 12.0614 15.3729 11.9615 15.0329 11.9615C13.3328 11.9615 11.973 13.3215 11.973 15.0214C11.973 15.3614 12.053 15.7214 12.1529 16.0614L10.8128 17.3814C10.4128 16.6815 10.1929 15.9014 10.1929 15.0215C10.1929 12.3615 12.3329 10.2215 14.9929 10.2215C15.8729 10.2215 16.6529 10.4414 17.3528 10.8414L16.0729 12.1415Z" fill="#9B9B9B"/>
<path d="M26.2931 14.6217C25.5931 13.2217 24.673 11.9618 23.5332 10.9417L19.8131 14.6217V15.0217C19.8131 17.6816 17.6731 19.8217 15.0131 19.8217H14.6132L12.2532 22.1816C13.1332 22.3616 14.0532 22.4816 14.9532 22.4816C19.8933 22.4816 24.1731 19.6017 26.2332 15.4415C26.4132 15.1614 26.4132 14.8815 26.2931 14.6215L26.2931 14.6217Z" fill="#9B9B9B"/>
</svg>
