<svg id="Capa_1" data-name="Capa 1" xmlns="http://www.w3.org/2000/svg" xmlns:xlink="http://www.w3.org/1999/xlink" viewBox="0 0 35 35"><defs><style>.cls-1{fill:none;}.cls-2{clip-path:url(#clip-path);}.cls-3{fill:#929292;}</style><clipPath id="clip-path"><rect class="cls-1" x="0.5" y="0.5" width="34" height="34"/></clipPath></defs><g id="Capa_8" data-name="Capa 8"><g class="cls-2"><path class="cls-3" d="M10.3.5h.9c1.7.6,3.5,1.1,5.2,1.8,1.4.5,1.6,1.1,1.1,2.2-.2.5,0,.7.3,1.1a1.3,1.3,0,0,1,.1,1.9C16.2,9,15,11,12.5,11.6A1.3,1.3,0,0,0,11.4,13c0,1.3-.1,2.7-.2,4-.1,2.8-.1,5.7-.4,8.5a14.63,14.63,0,0,0,.9-1.3c1.6-2.5,3.5-4.8,6.6-5.8a13.49,13.49,0,0,1,15.6,6.1c1.3,2.2.6,4.5-1.6,6a11.78,11.78,0,0,1-1.9,1.1,35,35,0,0,1-16,2.8c-3.7-.2-7.3-.7-11-.4a2.82,2.82,0,0,1-3-1.5V31A10.16,10.16,0,0,0,1,27.6,28.09,28.09,0,0,1,3.6,15.9,24.34,24.34,0,0,0,5.8,7.6C6.1,4.4,8,2.4,10.3.5Z"/></g></g></svg>