<?xml version="1.0" encoding="utf-8"?>
<!-- Generator: Adobe Illustrator 26.1.0, SVG Export Plug-In . SVG Version: 6.00 Build 0)  -->
<svg version="1.1" id="Capa_1" xmlns="http://www.w3.org/2000/svg" xmlns:xlink="http://www.w3.org/1999/xlink" x="0px" y="0px"
	 viewBox="0 0 35 35" style="enable-background:new 0 0 35 35;" xml:space="preserve">
<style type="text/css">
	.st0{display:none;}
	.st1{display:inline;}
	.st2{display:inline;fill-rule:evenodd;clip-rule:evenodd;}
	.st3{clip-path:url(#SVGID_00000127738460416019570270000000326669204781487748_);}
	.st4{clip-path:url(#SVGID_00000121277261688936834870000015643884536163395516_);}
	.st5{clip-path:url(#SVGID_00000053509071741685839900000014101594975409146256_);}
	.st6{clip-path:url(#SVGID_00000067917992689612906750000005302055222876713135_);}
	.st7{fill:#929292;}
</style>
<g id="Capa_1_00000128472516280785714150000006392564448112660632_" class="st0">
	<path class="st1" d="M34.4,11.6c-0.1-0.5-0.7-1-1.3-1c-0.1,0-0.7,0.1-1.2,0.3c-0.5,0.1-1,0.3-1,0.2c0,0-0.4-1-0.9-2.1
		c-0.5-1.2-0.9-2.3-1-2.5c-0.4-0.8-1.5-1.7-2.5-1.9c-0.6,0-17.5,0-18.1,0.1C7.5,5,6.6,5.6,6.2,6.3C6,6.5,5.5,7.6,5,8.8
		S4.1,11,4.1,11.1s-0.2,0.1-1-0.2c-0.5-0.1-1.1-0.3-1.2-0.3c-0.6,0-1.1,0.5-1.3,1c-0.1,0.3-0.1,1.6,0,2c0.2,0.6,0.8,1.2,1.4,1.3
		C2.5,15,2.5,15,2.4,15.1c0,0.1-0.2,0.5-0.3,0.9c-0.3,0.9-0.6,2.1-0.7,3c0,0.3-0.1,2.6-0.1,5.2c0,4.4,0,4.6,0.1,4.9
		c0.2,0.5,0.6,0.9,1,1c0.3,0.1,0.5,0.1,1.8,0.1c1.7,0,2-0.1,2.5-0.6c0.4-0.5,0.5-0.8,0.5-2.2v-1.2h20.3v1.3c0,0.8,0.1,1.4,0.1,1.5
		c0.2,0.4,0.5,0.7,0.8,0.9l0.4,0.2h1.5c1.3,0,1.6,0,1.9-0.1c0.4-0.1,0.9-0.5,1.1-1l0.2-0.4v-4.9c0-4.4,0-5-0.1-5.6
		c-0.2-0.9-0.4-2-0.7-2.8c-0.3-0.7-0.2-0.7,0.2-0.7c0.6,0,1.4-0.7,1.5-1.3C34.5,13.2,34.5,12,34.4,11.6z"/>
</g>
<g id="Capa_2_00000134216613227707801170000008672278244907650739_" class="st0">
	<path class="st2" d="M5.3,17.7v6.9c0,3.6,0,5.3,0.1,5.5C5.5,30.5,6,30.9,6.3,31c0.3,0,1.6,0,4.4,0h4.1h5.4h4.1c2.7,0,4.2,0,4.3-0.1
		c0.4-0.1,0.8-0.4,0.9-0.8c0.1-0.3,0.1-0.6,0.1-5.5v-7c1.6,1.3,2.6,2.2,2.7,2.2c0.1,0,0.2,0,0.4,0s0.4-0.2,1-1
		c0.4-0.5,0.8-1,0.8-1.1c0.1-0.4,0-0.5-2.4-2.5l-2.4-2V8.7V4.2L29.5,4l-0.2,0h-2.1c-1.4,0-2.2,0-2.4,0c-0.5,0.1-0.5,0.1-0.5,2.6l0,0
		v2.2l-2.7-2.3c-2.9-2.4-3-2.5-3.8-2.6c-0.2,0-0.5,0-0.7,0S16.6,4,16.4,4.1s-3.5,2.8-8,6.6c-7.3,6.1-7.9,6.5-7.8,6.9v0.1
		c0,0.1,0.4,0.6,0.8,1.1c0.6,0.8,0.8,0.9,1,1c0.1,0,0.3,0,0.4,0C2.7,19.8,3.8,19,5.3,17.7z"/>
</g>
<g id="Capa_3" class="st0">
	<path class="st1" d="M3.9,33.6c-0.9,0-1.7-0.3-2.4-1s-1-1.5-1-2.4V11.6c0-0.9,0.3-1.7,1-2.4s1.5-1,2.4-1h6.8V4.8
		c0-0.9,0.3-1.7,1-2.4s1.5-1,2.4-1h6.8c0.9,0,1.7,0.3,2.4,1c0.7,0.7,1,1.5,1,2.4v3.4h6.8c0.9,0,1.7,0.3,2.4,1s1,1.5,1,2.4v18.6
		c0,0.9-0.3,1.7-1,2.4s-1.5,1-2.4,1C31.1,33.6,3.9,33.6,3.9,33.6z M14.1,8.2h6.8V4.8h-6.8C14.1,4.8,14.1,8.2,14.1,8.2z"/>
</g>
<g id="Capa_4" class="st0">
	<g class="st1">
		<path d="M6.5,2c-1,0.2-1.7,0.6-2.4,1.3c-0.9,1-1.3,1.9-1.3,3.2c0,0.9,0.1,1.3,0.4,2c0.6,1.1,1.7,2.1,2.9,2.4
			c0.6,0.2,1.7,0.1,2.3,0c1.5-0.4,2.8-1.7,3.2-3.3c0.1-0.5,0.1-1.6,0-2.1c-0.1-0.6-0.6-1.5-1.1-2c-0.7-1-1.7-1.4-3-1.5
			C7.1,2,6.7,2,6.5,2z"/>
		<path d="M26.9,2c-1.7,0.3-3.2,1.7-3.6,3.3c-0.2,0.6-0.2,1.7,0,2.3c0.4,1.6,1.6,2.8,3.2,3.3c0.6,0.2,1.7,0.2,2.3,0
			c1.2-0.3,2.4-1.3,2.9-2.4c0.3-0.7,0.4-1.2,0.4-2c0-1.3-0.4-2.2-1.3-3.2C29.9,2.4,29,2,27.8,2C27.5,2,27.1,2,26.9,2z"/>
		<path d="M16.7,6.6c-1.5,0.2-2.8,0.8-4,2c-0.9,0.9-1.4,1.7-1.8,2.9c-0.2,0.5-0.2,0.7-0.2,1.8s0,1.3,0.2,1.8
			c0.5,1.8,1.7,3.4,3.4,4.3c1.9,1,4.5,1,6.4,0c1.7-0.9,2.9-2.5,3.4-4.3c0.1-0.5,0.2-0.7,0.2-1.8s0-1.3-0.2-1.8
			c-0.4-1.2-0.9-2.1-1.8-2.9c-1.2-1.2-2.5-1.8-4.2-2c-0.4,0-0.7-0.1-0.8-0.1C17.4,6.5,17.1,6.5,16.7,6.6z"/>
		<path d="M2.1,11.2c-0.9,0.5-1.4,1.7-1.6,4.4C0.4,17,0.4,18,0.7,18.5c0.3,0.8,1.2,1.3,2.2,1.6c0.3,0.1,0.9,0.1,1.9,0.1h1.4l0.4-0.4
			c1-1,2.2-1.6,3.6-1.8l0.6-0.1l-0.1-0.2c-0.6-0.9-1-1.8-1.2-2.8c-0.1-0.6-0.1-0.9-0.1-1.7v-1L9,12.3c-0.8,0.2-2.1,0.3-2.8,0.1
			c-0.8-0.2-1.6-0.5-2.6-0.9C2.7,11,2.5,11,2.1,11.2z"/>
		<path d="M31.4,11.5c-0.9,0.5-2,0.9-2.7,1s-1.9,0-2.7-0.2l-0.6-0.2v1c0,0.8,0,1.1-0.1,1.7c-0.2,1-0.6,2-1.2,2.8L24,17.8l0.6,0.1
			c1.5,0.2,2.7,0.8,3.6,1.8l0.4,0.4H30c1,0,1.6,0,1.9-0.1c1-0.2,1.9-0.8,2.2-1.6c0.2-0.4,0.2-0.5,0.2-1.2c0-0.9-0.1-2.3-0.2-3.2
			c-0.2-1.2-0.6-2.1-1-2.5C32.7,10.9,32.5,11,31.4,11.5z"/>
		<path d="M10.1,19.1c-2.4,0.4-4,2.4-4.7,6c-0.3,1.3-0.3,2.1-0.3,3.6c0,1,0,1.4,0.1,1.8c0.4,1.6,1.6,2.8,3.2,3.1
			c0.5,0.1,1,0.1,9.1,0.1s8.6,0,9.1-0.1c1.5-0.3,2.6-1.4,3.1-2.7c0.2-0.7,0.3-1.4,0.2-2.9c-0.2-4.6-1.6-7.6-4.1-8.6
			c-0.5-0.2-1.6-0.4-1.9-0.4c-0.2,0-0.5,0.2-0.9,0.4c-0.4,0.2-0.9,0.6-1.2,0.8c-0.3,0.2-0.7,0.4-0.9,0.5c-1.6,0.6-2,0.7-3.3,0.7
			c-1.2,0-1.7-0.1-2.9-0.5c-0.8-0.3-0.9-0.3-1.9-1C11.2,18.9,11.2,18.9,10.1,19.1z"/>
	</g>
</g>
<g id="Capa_5" class="st0">
	<g class="st1">
		<path d="M6.9,18V9.6H3.8c-0.8,0-1.7,0.3-2.3,0.9c-0.6,0.6-0.9,1.4-0.9,2.3v19.1c0,0.2,0.1,0.4,0.2,0.6c0.1,0.2,0.3,0.3,0.4,0.4
			C1.4,33,1.6,33,1.7,33c0.2,0,0.4-0.1,0.5-0.2l5.5-4H22c0.4,0,0.8-0.1,1.2-0.2c0.4-0.1,0.7-0.4,1-0.7c0.3-0.3,0.5-0.6,0.7-1
			c0.1-0.4,0.2-0.8,0.2-1.2v-1.2H13.3c-1.7,0-3.3-0.7-4.5-1.9C7.6,21.3,6.9,19.7,6.9,18z"/>
		<path d="M31.3,2.1h-18c-0.8,0-1.7,0.3-2.3,0.9s-0.9,1.4-0.9,2.3V18c0,0.8,0.3,1.7,0.9,2.3c0.6,0.6,1.4,0.9,2.3,0.9h14.4l5.1,3.9
			c0.2,0.1,0.3,0.2,0.5,0.2s0.4,0,0.5-0.1c0.2-0.1,0.3-0.2,0.4-0.4c0.1-0.2,0.2-0.4,0.2-0.6v-19c0-0.8-0.3-1.6-0.9-2.2
			C33,2.5,32.2,2.2,31.3,2.1z"/>
	</g>
</g>
<g id="Capa_6" class="st0">
	<g class="st1">
		<g>
			<defs>
				<rect id="SVGID_1_" x="0.5" y="0.5" width="34" height="34"/>
			</defs>
			<clipPath id="SVGID_00000160177566524978138690000014302708574217214142_">
				<use xlink:href="#SVGID_1_"  style="overflow:visible;"/>
			</clipPath>
			<g style="clip-path:url(#SVGID_00000160177566524978138690000014302708574217214142_);">
				<path d="M16.2,0.6c-1.2,0.2-2.3,0.6-3.3,1.3c-0.7,0.5-1.8,1.5-2.3,2.3c-2,2.8-2,6.7-0.2,9.5c0.5,0.7,1.5,1.8,2.3,2.3
					c2.8,2,6.9,2,9.7,0c0.7-0.5,1.8-1.6,2.3-2.3c1.8-2.8,1.8-6.5,0-9.3c-0.5-0.7-1.5-1.8-2.3-2.3C20.6,0.8,18.4,0.3,16.2,0.6z"/>
				<path d="M8.3,16.2c-2.1,0.4-3.6,1.6-4.7,3.8c-0.5,0.9-0.7,1.6-1,2.7C2.2,24.3,2,25.4,2,27.3c-0.1,2.6,0.2,3.9,1.1,5.1
					c0.8,1,1.8,1.6,3.2,1.9c0.5,0.1,1,0.1,11.3,0.1c10.2,0,10.8,0,11.3-0.1c1.7-0.4,3-1.3,3.7-2.7c0.5-1,0.7-2.1,0.6-3.8
					c-0.2-5.8-1.8-9.6-4.6-11c-0.9-0.4-1.9-0.7-2.8-0.7c-0.5,0-0.4-0.1-2,1c-1.3,0.8-1.9,1.1-2.9,1.5c-1.3,0.5-1.9,0.6-3.3,0.6
					s-2-0.1-3.3-0.6c-1-0.4-1.6-0.7-2.9-1.5c-1.5-1-1.5-1-2.1-1C9,16.1,8.6,16.2,8.3,16.2z"/>
			</g>
		</g>
	</g>
</g>
<g id="Capa_7" class="st0">
	<g class="st1">
		<g>
			<defs>
				<rect id="SVGID_00000151503411149910567720000009197761856363070871_" x="1.5" y="0.5" width="32" height="34"/>
			</defs>
			<clipPath id="SVGID_00000049921782775614198320000007318247269519184014_">
				<use xlink:href="#SVGID_00000151503411149910567720000009197761856363070871_"  style="overflow:visible;"/>
			</clipPath>
			<g style="clip-path:url(#SVGID_00000049921782775614198320000007318247269519184014_);">
				<path d="M17.5,0.5h10.1c1,0,1,0,1,0.9c0,0.4,0,0.8,0,1.2s0.2,0.5,0.5,0.5c0.8,0,1.5,0,2.3,0c1.1,0,1.8,0.7,2,1.8
					c0,0.3,0.1,0.5,0.1,0.8c0,2.5,0,5,0,7.5c0,0.6,0,1.3-0.5,1.8c-0.4,0.4-0.9,0.6-1.3,0.8c-1.4,0.7-2.9,1.4-4.3,2
					c-0.3,0.2-0.5,0.5-0.7,0.8c-1.2,1.8-2.9,3.2-5,4C20.8,23,20.8,23,20.8,24c0,1.2,0,2.3,0,3.5c0,0.8,0,0.8,0.8,0.8
					c0.6,0,1.1,0,1.7,0s0.8,0.2,0.8,0.8c0,0.3,0,0.6,0,0.9c0,0.4,0.2,0.6,0.5,0.5c0.5,0,0.9,0,1.4,0s0.8,0.3,0.8,0.8
					c0,0.8,0,1.6,0,2.3s-0.2,0.9-0.9,0.9c-5.6,0-11.3,0-16.9,0c-0.7,0-0.9-0.2-0.9-0.9s0-1.5,0-2.2s0.3-0.9,0.9-0.9
					c0.4,0,0.8,0,1.2,0s0.6-0.2,0.6-0.6c0-0.3,0-0.6,0-0.9c0-0.6,0.2-0.8,0.8-0.8c0.7,0,1.3,0,2,0c0.4,0,0.6-0.2,0.6-0.6
					c0-1.4,0-2.8,0-4.2c0-0.4-0.1-0.6-0.5-0.7c-1.5-0.5-2.8-1.4-4-2.5c-0.6-0.5-1.1-1.1-1.5-1.8c-0.2-0.4-0.6-0.7-1-0.9
					c-1.5-0.7-3-1.4-4.5-2.1c-0.8-0.4-1.2-1-1.2-1.9c0-2.7,0-5.4,0-8c0-0.7,0.1-1.3,0.7-1.8C2.6,3.4,3,3.2,3.5,3.2
					c0.7,0,1.5,0,2.2,0c0.6,0,0.7-0.1,0.7-0.7c0-0.5,0-0.9,0-1.4S6.5,0.5,7,0.5c2.1,0,4.2,0,6.3,0H17.5z M28.6,9.7
					c-0.1,1.5,0.1,3.2-0.2,4.9c-0.1,0.4,0.2,0.2,0.4,0.2c0.7-0.3,1.5-0.7,2.2-1c0.2-0.1,0.3-0.3,0.3-0.6c0-2.5,0-4.9,0-7.4
					c0-0.4-0.1-0.5-0.5-0.5c-0.5,0-1.1,0-1.6,0s-0.6,0.2-0.6,0.6C28.6,7.1,28.6,8.3,28.6,9.7z M6.4,9.9c0-1.5,0-2.7,0-4
					c0-0.4-0.2-0.6-0.6-0.6c-0.5,0-1.1,0-1.6,0c-0.3,0-0.5,0.2-0.5,0.5c0,2.5,0,5,0,7.4c0,0.2,0,0.4,0.2,0.4
					c0.8,0.4,1.6,0.8,2.4,1.1c0.2,0.1,0.3,0,0.3-0.2C6.2,13,6.5,11.3,6.4,9.9z"/>
			</g>
		</g>
	</g>
</g>
<g id="Capa_8" class="st0">
	<g class="st1">
		<g>
			<defs>
				<rect id="SVGID_00000073710066192321482790000008958593057967899537_" x="0.5" y="0.5" width="34" height="34"/>
			</defs>
			<clipPath id="SVGID_00000174568289172344818310000009422611289912421012_">
				<use xlink:href="#SVGID_00000073710066192321482790000008958593057967899537_"  style="overflow:visible;"/>
			</clipPath>
			<g style="clip-path:url(#SVGID_00000174568289172344818310000009422611289912421012_);">
				<path d="M10.3,0.5h0.9c1.7,0.6,3.5,1.1,5.2,1.8c1.4,0.5,1.6,1.1,1.1,2.2c-0.2,0.5,0,0.7,0.3,1.1c0.5,0.6,0.7,1.3,0.1,1.9
					C16.2,9,15,11,12.5,11.6c-0.8,0.2-1.1,0.7-1.1,1.4c0,1.3-0.1,2.7-0.2,4c-0.1,2.8-0.1,5.7-0.4,8.5c0.3-0.4,0.6-0.8,0.9-1.3
					c1.6-2.5,3.5-4.8,6.6-5.8c6.6-2.1,12.9,1.4,15.6,6.1c1.3,2.2,0.6,4.5-1.6,6c-0.6,0.4-1.2,0.8-1.9,1.1c-5.1,2.3-10.4,3-16,2.8
					c-3.7-0.2-7.3-0.7-11-0.4c-1.3,0.1-2.4-0.3-3-1.5V31C0.8,29.9,1,28.7,1,27.6c0-4,0.9-8,2.6-11.7c1.2-2.6,2-5.5,2.2-8.3
					C6.1,4.4,8,2.4,10.3,0.5z"/>
			</g>
		</g>
	</g>
</g>
<g id="Capa_9">
	<g>
		<g>
			<defs>
				<rect id="SVGID_00000071545270680209711040000001701404594577234610_" x="3.5" y="0.2" width="27" height="34.3"/>
			</defs>
			<clipPath id="SVGID_00000171703278095612073430000016351838454900627330_">
				<use xlink:href="#SVGID_00000071545270680209711040000001701404594577234610_"  style="overflow:visible;"/>
			</clipPath>
			<g style="clip-path:url(#SVGID_00000171703278095612073430000016351838454900627330_);">
				<path class="st7" d="M11.7,12.5c-0.9,0.2-1.8,0.4-2.7,0.6c-0.3,0.1-0.6,0.1-0.8,0.1s-0.5,0-0.6-0.3c-0.1-0.1-0.1-0.3,0-0.4
					c0-0.1,0.1-0.3,0.2-0.4C8,12,8.1,11.9,8.3,11.8c0.7-0.2,1.5-0.4,2.3-0.7c0.1,0,0.1-0.1,0.3-0.1c-0.5-0.4-1.1-0.7-1.7-1
					C9,10,8.7,9.9,8.5,9.8C8.4,9.7,8.3,9.5,8.2,9.4c0-0.2,0-0.3,0-0.5C8.4,8.6,8.7,8.5,9,8.6c0.5,0.1,1.1,0.3,1.5,0.5
					c0.8,0.4,1.5,0.9,2.2,1.4c1.1,0.8,2.3,1,3.6,0.7c1.1-0.3,2.2-0.2,3.3,0.1c0.5,0.1,1.1,0.2,1.6,0.3c0.3,0,0.7,0.2,0.9,0.5
					c1.6,1.6,3.2,3.1,4.6,4.8c1.5,1.9,2.8,4,3.3,6.4c0.5,2,0.5,4.1-0.5,6c-0.8,1.6-2,2.8-3.6,3.6c-1.6,0.9-3.5,1.4-5.4,1.6
					c-1.7,0.1-3.4,0.1-5.1,0c-2.7-0.2-5.1-1-7.2-2.8c-1.8-1.6-3.3-3.4-3.8-5.9c-0.4-2-0.1-3.8,0.8-5.6c0.9-1.9,2.3-3.5,3.8-5
					c0.7-0.8,1.5-1.5,2.2-2.3C11.5,12.7,11.6,12.6,11.7,12.5z M13.6,25.3c0,0.2,0.1,0.3,0.1,0.5c0.2,0.9,0.5,1.7,1.2,2.3
					c1.2,1,3.4,1.2,4.7,0.3c0.7-0.4,1-1,0.9-1.9c0-0.2-0.1-0.3-0.2-0.4s-0.3-0.2-0.4-0.2c-0.6,1.6-1.6,1.8-2.9,1.6
					c-0.8-0.2-1.6-1.2-1.5-2.2c0.8,0,1.7,0,2.5,0c0.2,0,0.3,0,0.5,0c0.3-0.1,0.4-0.3,0.3-0.7c0-0.3-0.2-0.2-0.4-0.2
					c-0.3,0-0.5,0-0.8,0h-2.3v-1.1c0.9,0,1.8,0,2.7,0c0.2,0,0.3,0,0.5-0.1C19,23,19,22.8,19,22.5s-0.2-0.3-0.4-0.3h-3
					c0.1-0.7,0.2-1.4,0.6-2c0.2-0.3,0.5-0.6,0.9-0.7s0.8-0.1,1.1,0c0.3,0.1,0.6,0.3,0.6,0.7c0,0.3,0,0.6,0,0.9v0.1
					c0,0,0,0.1,0.1,0.1c0.7,0.4,1.7,0,1.9-0.8c0.1-0.4,0-0.7-0.1-1.1c-0.2-0.3-0.4-0.6-0.8-0.7c-0.9-0.4-1.9-0.5-2.8-0.3
					c-0.4,0-0.8,0.2-1.2,0.4c-0.4,0.2-0.7,0.5-0.9,0.8c-0.5,0.7-0.9,1.5-1.1,2.4c0,0.2-0.1,0.3-0.3,0.3s-0.5,0-0.7,0
					c-0.3,0.1-0.4,0.3-0.4,0.6c0,0.3,0.2,0.3,0.5,0.3s0.5,0,0.7,0v1.1c-0.2,0-0.5,0-0.7,0c-0.3,0-0.4,0.3-0.4,0.6
					c0,0.3,0.2,0.3,0.5,0.3C13.1,25.3,13.4,25.3,13.6,25.3L13.6,25.3z"/>
				<path class="st7" d="M12.2,5.2c0.2-1.6,0.7-3,2-4.2c0.6-0.6,1.4-0.7,2.1-0.4c0.7,0.4,1.3,0.8,2,1.1c1.1,0.7,2.5,1.1,3.8,1.1
					c0.8,0,1.6,0,2.5,0.1c1.1,0.1,1.3,0.6,1.3,1.7c-0.1,1-0.5,1.8-1,2.6c-0.9,1.4-2.2,2.3-3.6,3.2c-0.1,0-0.3,0.1-0.4,0
					c-0.6-0.1-1.2-0.3-1.8-0.4c-0.8-0.2-1.5,0-2.3,0.1c-0.6,0.1-1.3,0.1-1.9,0.2c-0.2,0-0.3,0-0.5-0.1c-0.1-0.1-0.3-0.2-0.4-0.3
					C12.9,8.5,12.4,6.9,12.2,5.2z"/>
			</g>
		</g>
	</g>
</g>
</svg>
