<?xml version="1.0" encoding="utf-8"?>
<!-- Generator: Adobe Illustrator 26.1.0, SVG Export Plug-In . SVG Version: 6.00 Build 0)  -->
<svg version="1.1" id="Capa_1" xmlns="http://www.w3.org/2000/svg" xmlns:xlink="http://www.w3.org/1999/xlink" x="0px" y="0px"
	 viewBox="0 0 35 35" style="enable-background:new 0 0 35 35;" xml:space="preserve">
<style type="text/css">
	.st0{fill:#929292;}
</style>
<path class="st0" d="M34.4,11.6c-0.1-0.5-0.7-1-1.3-1c-0.1,0-0.7,0.1-1.2,0.3c-0.5,0.1-1,0.3-1,0.2c0,0-0.4-1-0.9-2.1
	c-0.5-1.2-0.9-2.3-1-2.5c-0.4-0.8-1.5-1.7-2.5-1.9c-0.6,0-17.5,0-18.1,0.1C7.5,5,6.6,5.6,6.2,6.3C6,6.5,5.5,7.6,5,8.8
	S4.1,11,4.1,11.1s-0.2,0.1-1-0.2c-0.5-0.1-1.1-0.3-1.2-0.3c-0.6,0-1.1,0.5-1.3,1c-0.1,0.3-0.1,1.6,0,2c0.2,0.6,0.8,1.2,1.4,1.3
	C2.5,15,2.5,15,2.4,15.1c0,0.1-0.2,0.5-0.3,0.9c-0.3,0.9-0.6,2.1-0.7,3c0,0.3-0.1,2.6-0.1,5.2c0,4.4,0,4.6,0.1,4.9
	c0.2,0.5,0.6,0.9,1,1c0.3,0.1,0.5,0.1,1.8,0.1c1.7,0,2-0.1,2.5-0.6c0.4-0.5,0.5-0.8,0.5-2.2v-1.2h20.3v1.3c0,0.8,0.1,1.4,0.1,1.5
	c0.2,0.4,0.5,0.7,0.8,0.9l0.4,0.2h1.5c1.3,0,1.6,0,1.9-0.1c0.4-0.1,0.9-0.5,1.1-1l0.2-0.4v-4.9c0-4.4,0-5-0.1-5.6
	c-0.2-0.9-0.4-2-0.7-2.8c-0.3-0.7-0.2-0.7,0.2-0.7c0.6,0,1.4-0.7,1.5-1.3C34.5,13.2,34.5,12,34.4,11.6z"/>
</svg>
