<svg width="282" height="281" viewBox="0 0 282 281" fill="none" xmlns="http://www.w3.org/2000/svg">
<g clip-path="url(#clip0_260_20879)">
<path d="M180.957 258.049C163.003 288.65 118.762 288.65 100.809 258.049L100.157 256.938C91.8728 242.821 76.7746 234.103 60.4078 233.989L59.118 233.98C23.6403 233.731 1.52003 195.418 19.0446 164.569L19.6811 163.449C27.7654 149.217 27.7654 131.782 19.6811 117.55L19.0446 116.43C1.52004 85.5809 23.6404 47.2679 59.118 47.0193L60.4078 47.0108C76.7746 46.8956 91.8728 38.1776 100.157 24.0616L100.809 22.9502C118.762 -7.65071 163.003 -7.65071 180.957 22.9502L181.609 24.0616C189.892 38.1776 204.991 46.8956 221.358 47.0108L222.647 47.0193C258.124 47.268 280.245 85.5809 262.721 116.43L262.084 117.55C254 131.782 254 149.217 262.084 163.449L262.721 164.569C280.245 195.418 258.124 233.731 222.647 233.98L221.358 233.989C204.991 234.103 189.892 242.821 181.609 256.938L180.957 258.049Z" fill="#FF7453"/>
</g>
<defs>
<clipPath id="clip0_260_20879">
<rect width="281" height="281" fill="white" transform="translate(281.496 281) rotate(-180)"/>
</clipPath>
</defs>
</svg>
