<svg width="282" height="282" viewBox="0 0 282 282" fill="none" xmlns="http://www.w3.org/2000/svg">
<path fill-rule="evenodd" clip-rule="evenodd" d="M141.034 140.768C141.034 140.768 123.476 93.7506 123.476 60.504C123.476 27.2575 131.336 0.305895 141.034 0.305896C150.731 0.305897 158.592 27.2575 158.592 60.504C158.592 93.7506 141.034 140.768 141.034 140.768ZM141.034 140.768C141.034 140.768 120.202 186.43 96.6941 209.939C73.1849 233.448 48.5689 246.947 41.7115 240.091C34.8556 233.233 48.354 208.617 71.8632 185.108C95.3724 161.6 141.034 140.768 141.034 140.768ZM141.034 140.768C141.034 140.768 94.0155 123.21 60.7695 123.21C27.5234 123.21 0.571527 131.071 0.571526 140.768C0.571525 150.466 27.5234 158.326 60.7695 158.326C94.0155 158.326 141.034 140.768 141.034 140.768ZM141.034 140.768C141.034 140.768 186.696 161.6 210.205 185.108C233.713 208.617 247.213 233.233 240.356 240.091C233.499 246.947 208.883 233.448 185.374 209.939C161.865 186.43 141.034 140.768 141.034 140.768ZM141.034 140.768C140.995 140.872 123.476 187.823 123.476 221.033C123.476 254.279 131.336 281.231 141.034 281.231C150.731 281.231 158.592 254.279 158.592 221.033C158.592 187.787 141.034 140.768 141.034 140.768ZM141.034 140.768C141.034 140.768 188.052 123.21 221.298 123.21C254.545 123.21 281.496 131.071 281.496 140.768C281.496 150.466 254.545 158.326 221.298 158.326C188.052 158.326 141.034 140.768 141.034 140.768ZM141.034 140.768C141.034 140.768 95.3724 119.937 71.8632 96.4281C48.354 72.9192 34.8556 48.303 41.7116 41.4463C48.5689 34.5895 73.1849 48.0888 96.6941 71.5976C120.202 95.1065 141.034 140.768 141.034 140.768ZM185.374 71.5976C161.865 95.1065 141.034 140.768 141.034 140.768C141.034 140.768 186.696 119.937 210.204 96.4281C233.713 72.9193 247.212 48.3032 240.356 41.4463C233.499 34.5897 208.883 48.0888 185.374 71.5976Z" fill="#FFC466"/>
</svg>
